<svg xmlns="http://www.w3.org/2000/svg" version="1.1" xmlns:xlink="http://www.w3.org/1999/xlink" xmlns:svgjs="http://svgjs.com/svgjs" width="1920" height="1080" preserveAspectRatio="none" viewBox="0 0 1920 1080"><g mask="url(&quot;#SvgjsMask2043&quot;)" fill="none"><rect width="1920" height="1080" x="0" y="0" fill="url(#SvgjsLinearGradient2044)"></rect><path d="M1952 1080L0 1080 L0 676.18Q99.85 616.02, 160 715.87Q197.8 657.67, 256 695.47Q288.89 568.37, 416 601.26Q469.05 494.31, 576 547.35Q700.23 511.58, 736 635.81Q778.34 518.14, 896 560.48Q984.34 488.82, 1056 577.15Q1085.67 510.82, 1152 540.49Q1271.23 499.72, 1312 618.95Q1393.83 604.78, 1408 686.6Q1503.15 685.75, 1504 780.91Q1511.07 691.97, 1600 699.04Q1634.12 637.15, 1696 671.27Q1765.13 644.39, 1792 713.52Q1826.32 587.84, 1952 622.16z" fill="rgba(255, 199, 0, 1)"></path><path d="M1952 1080L0 1080 L0 830.21Q6.43 740.64, 96 747.07Q186.7 677.77, 256 768.46Q382.86 735.32, 416 862.18Q497.65 847.83, 512 929.47Q517.75 839.22, 608 844.97Q617.99 758.96, 704 768.94Q778.38 683.32, 864 757.7Q926.79 724.5, 960 787.29Q1131.41 798.7, 1120 970.11Q1116.38 806.49, 1280 802.86Q1294.26 721.12, 1376 735.38Q1462.24 661.62, 1536 747.86Q1724.55 776.41, 1696 964.96Q1678.82 787.78, 1856 770.59Q1895.94 714.53, 1952 754.47z" fill="rgba(255, 187, 39, 1)"></path><path d="M1984 1080L0 1080 L0 985.04Q34.58 923.62, 96 958.19Q175.52 941.71, 192 1021.23Q326.45 995.68, 352 1130.13Q412.49 1030.62, 512 1091.11Q600.58 1019.69, 672 1108.27Q690.42 1030.69, 768 1049.12Q773.5 958.62, 864 964.12Q880.82 884.94, 960 901.77Q1051.99 833.76, 1120 925.75Q1162.85 872.6, 1216 915.44Q1343.95 883.39, 1376 1011.34Q1404.83 944.17, 1472 973.01Q1498.62 903.63, 1568 930.25Q1656.38 858.63, 1728 947Q1760.14 883.14, 1824 915.28Q1913.93 845.21, 1984 935.15z" fill="rgba(255, 92, 0, 1)"></path></g><defs><mask id="SvgjsMask2043"><rect width="1920" height="1080" fill="#ffffff"></rect></mask><linearGradient x1="10.94%" y1="-19.44%" x2="89.06%" y2="119.44%" gradientUnits="userSpaceOnUse" id="SvgjsLinearGradient2044"><stop stop-color="#0e2a47" offset="0"></stop><stop stop-color="rgba(149, 118, 60, 1)" offset="1"></stop></linearGradient></defs></svg>