<svg xmlns="http://www.w3.org/2000/svg" version="1.1" xmlns:xlink="http://www.w3.org/1999/xlink" xmlns:svgjs="http://svgjs.com/svgjs" width="1440" height="560" preserveAspectRatio="none" viewBox="0 0 1440 560"><g mask="url(&quot;#SvgjsMask1223&quot;)" fill="none"><rect width="1440" height="560" x="0" y="0" fill="url(#SvgjsLinearGradient1224)"></rect><path d="M1440 0L1359.88 0L1440 243.33z" fill="rgba(255, 255, 255, .1)"></path><path d="M1359.88 0L1440 243.33L1440 384.82000000000005L652.6400000000001 0z" fill="rgba(255, 255, 255, .075)"></path><path d="M652.64 0L1440 384.82000000000005L1440 486.15000000000003L511.78 0z" fill="rgba(255, 255, 255, .05)"></path><path d="M511.78 0L1440 486.15000000000003L1440 501.88000000000005L294.06999999999994 0z" fill="rgba(255, 255, 255, .025)"></path><path d="M0 560L515.16 560L0 556.98z" fill="rgba(0, 0, 0, .1)"></path><path d="M0 556.98L515.16 560L562.16 560L0 307.49z" fill="rgba(0, 0, 0, .075)"></path><path d="M0 307.49L562.16 560L1047.75 560L0 183.81z" fill="rgba(0, 0, 0, .05)"></path><path d="M0 183.80999999999995L1047.75 560L1225.1100000000001 560L0 158.33999999999995z" fill="rgba(0, 0, 0, .025)"></path></g><defs><mask id="SvgjsMask1223"><rect width="1440" height="560" fill="#ffffff"></rect></mask><linearGradient x1="50%" y1="0%" x2="50%" y2="100%" gradientUnits="userSpaceOnUse" id="SvgjsLinearGradient1224"><stop stop-color="rgba(0, 0, 0, 1)" offset="0.01"></stop><stop stop-color="rgba(90, 55, 96, 1)" offset="0.34"></stop><stop stop-color="rgba(255, 166, 45, 1)" offset="1"></stop></linearGradient></defs></svg>